<svg width="470" height="90" viewBox="0 0 470 90" fill="none" xmlns="http://www.w3.org/2000/svg">
<path d="M37.3859 52.7916C43.7917 52.8339 50.1705 51.956 56.3267 50.1848C57.6577 49.7863 58.9717 49.3201 60.2688 48.786C60.752 48.5889 61.2352 48.3791 61.7121 48.1502C62.8135 47.6434 63.8874 47.0789 64.9293 46.4589C70.8678 42.9111 75.5919 37.4431 76.8508 29.0376C75.9181 28.5583 74.9128 28.236 73.8752 28.0839C72.9233 27.9251 71.96 27.8443 70.995 27.8423C69.2687 27.8379 67.5524 28.1039 65.9085 28.6307C65.2727 35.7391 62.9837 40.6794 59.3787 44.0683C58.754 44.661 58.0867 45.2072 57.3822 45.7023C56.7403 46.1654 56.0715 46.59 55.3794 46.9739C54.4838 47.4573 53.5578 47.8821 52.6072 48.2456C47.2346 50.3565 40.4823 51.005 32.7826 51.005H22.5078V1.793H44.7613C57.7383 1.793 64.4715 12.2013 65.8258 22.139C67.5171 21.7979 69.2378 21.6233 70.9632 21.6177C73.0021 21.6134 75.0383 21.7643 77.0543 22.0691C76.1069 13.4347 69.7488 0 47.9404 0H0V0.635814C5.59516 0.635814 11.8261 -7.88267e-06 11.8261 10.0459L11.9533 79.4767C11.9533 88.6325 5.72232 88.3781 0.127163 88.3781V89.0139H34.2068V88.3781C28.6116 88.3781 22.5078 89.0139 22.5078 79.3496V52.7726L37.3859 52.7916Z" fill="black"/>
<path d="M70.7088 50.3755C68.8522 49.9622 66.9893 49.5871 65.2535 49.1675C64.872 49.3773 64.4842 49.5871 64.09 49.8033C66.2835 50.3437 68.4962 50.8524 70.5816 51.4183C65.368 53.0714 60.1543 54.9788 55.4493 57.6492C46.675 62.2271 39.4267 72.4001 46.1664 81.8102C49.5998 86.5152 56.2122 88.8041 62.6975 89.0585C75.6681 89.3128 84.951 81.3015 85.0782 68.4581C85.0782 60.4214 80.3732 52.5373 70.7088 50.3755ZM64.3507 87.2527C57.611 86.8712 53.0332 82.0391 52.2702 75.6809C50.9986 63.6005 61.5531 55.9707 71.9804 52.1558C80.1188 54.5719 84.3152 61.3115 84.188 68.5598C83.8066 79.1143 75.4138 87.8885 64.3507 87.2527Z" fill="black"/>
<path d="M111.783 80.0043C111.783 80.0043 110.25 87.7612 103.644 87.3797C97.5404 86.8711 97.0318 79.6228 97.0318 74.6635V47.5778C97.1335 35.2112 89.9997 27.7722 79.7186 25.2035C78.892 24.9937 78.0464 24.822 77.1753 24.6758C75.1197 24.3399 73.0399 24.174 70.9571 24.1798C69.3043 24.1866 67.6569 24.3677 66.0422 24.7203C65.1836 24.8861 64.3346 25.0983 63.499 25.3561C57.5795 27.2254 52.0543 31.2374 50.5919 37.125C49.829 40.4249 50.6428 43.1589 52.9572 45.2571C53.9634 44.7931 54.9271 44.2421 55.8374 43.6103C54.8028 41.5228 54.522 39.1416 55.0426 36.8707C56.0409 32.0194 59.3217 28.6051 63.4862 26.7994C64.3088 26.4368 65.1593 26.1412 66.0295 25.9156C68.7053 25.2187 71.4982 25.0952 74.2251 25.5532C75.2052 25.6992 76.1639 25.964 77.08 26.3416C77.9531 26.6918 78.7761 27.1557 79.5278 27.7213C85.886 32.4645 86.3056 43.3687 86.3056 50.7314V74.7652C86.3056 86.7185 95.0798 89.1346 103.091 88.8803C111.357 88.4988 113.01 79.9789 113.01 79.9789L111.783 80.0043Z" fill="black"/>
<path d="M134.03 79.4958L133.909 0.019043L111.783 5.10555V5.74137C117.378 5.74137 123.602 5.9957 123.602 15.0243L123.475 79.4958C123.475 88.1428 117.505 88.3972 111.91 88.3972V89.033H145.608V88.3972C140.006 88.3972 134.03 88.1428 134.03 79.4958Z" fill="black"/>
<path d="M257.504 79.1141V48.9765C257.504 33.717 248.349 24.0526 234.997 24.1798C222.662 24.4341 215.795 32.0639 214.269 44.1443C212.743 31.6824 204.096 24.0526 192.016 24.1798C177.265 24.4341 171.034 35.3701 171.034 49.2309V24.1798L148.78 29.3934V30.0293C154.375 30.0293 160.473 30.2836 160.473 39.0578V79.3684C160.473 88.1427 154.375 88.5241 148.78 88.5241V89.0328H182.733V88.5241C177.144 88.5241 171.034 87.3797 171.034 79.3684V58.3866C171.034 50.7568 172.057 40.2023 176.247 33.4627C179.299 28.7577 184.004 25.8329 189.472 26.0872C203.969 26.4687 203.969 49.2309 203.969 49.2309V79.3684C203.969 87.7612 197.992 88.5241 192.397 88.5241V89.0328H226.35V88.5241C220.754 88.5241 214.651 87.634 214.651 79.2413V48.9765C214.85 43.5029 216.424 38.1677 219.228 33.4627C222.408 28.3762 227.876 25.4514 233.979 26.2144C246.95 27.9947 246.95 49.2309 246.95 49.2309V79.1141C246.95 87.5068 240.846 88.5241 235.378 88.5241V89.0328H269.331V88.5241C263.608 88.5241 257.504 87.5068 257.504 79.1141Z" fill="black"/>
<path d="M279.802 28.5484C264.791 37.3925 260.092 56.982 269.197 72.4195C278.365 87.9715 297.777 93.3632 312.782 84.5C327.787 75.6367 332.492 56.0664 323.324 40.508C314.219 25.0959 294.814 19.7042 279.802 28.5484ZM320.838 75.6558C313.844 84.0613 296.931 81.9186 283.713 71.256C270.666 60.6443 265.319 45.0477 272.268 36.5342C279.217 28.0206 295.749 29.7882 308.789 40.4063C322.059 51.177 327.775 67.1423 320.838 75.6558Z" fill="black"/>
<path d="M393.315 79.4956V0.145996L371.315 5.10536V5.74117C376.783 5.74117 382.887 5.99548 382.887 14.7697V44.9073C381.616 35.6244 375.512 25.3242 362.16 24.5613C343.594 23.4168 331.513 38.9306 331.513 56.7334C331.513 74.6634 343.594 89.0328 362.16 89.0328C372.841 89.0328 379.581 83.4376 382.887 75.172V89.0328L404.886 89.1599V88.5241C399.291 88.5241 393.315 88.2698 393.315 79.4956ZM382.887 61.8199C382.887 79.4956 372.841 88.1427 363.177 86.871C352.75 85.4722 344.357 74.0276 343.594 56.9878C342.704 38.422 350.206 26.3415 362.668 26.2144C372.841 26.0872 382.887 35.4973 382.887 53.4272V61.8199Z" fill="black"/>
<path d="M468.728 80.0046C468.728 80.0046 467.202 87.7616 460.59 87.3801C454.486 86.8714 453.978 79.6231 453.978 74.6638V47.5781C454.105 31.9371 442.66 24.1802 427.909 24.1802C420.025 24.1802 409.598 28.758 407.563 37.1508C406.419 42.1101 408.835 45.7978 414.557 47.9596C418.626 49.3584 423.331 50.2485 427.528 51.393C422.314 53.0461 417.1 54.9536 412.395 57.624C403.621 62.2019 396.373 72.3749 403.112 81.7849C406.546 86.4899 413.158 88.7789 419.644 89.0332C432.614 89.2875 441.897 81.2763 442.024 68.4328C442.024 60.4216 437.319 52.5375 427.655 50.3757C424.221 49.6127 420.788 48.9769 418.118 47.9596C413.285 46.3065 410.997 42.1101 412.014 36.8965C413.794 28.2494 422.823 24.1802 431.215 25.579C442.66 27.3592 443.296 41.7286 443.296 50.7572V74.791C443.296 86.7443 452.07 89.1603 460.081 88.906C468.347 88.5245 470 80.0046 470 80.0046H468.728ZM428.926 52.156C437.065 54.5721 441.261 61.3117 441.134 68.56C440.753 79.1145 432.36 87.8887 421.297 87.2529C414.557 86.8714 409.979 82.0392 409.216 75.6811C407.945 63.6006 418.499 55.9709 428.926 52.156Z" fill="black"/>
</svg>
