<svg width="486" height="528" viewBox="0 0 486 528" fill="none" xmlns="http://www.w3.org/2000/svg">
<path d="M331.874 1H153.641C69.3398 1 1 69.3398 1 153.641V374.359C1 458.66 69.3398 527 153.641 527H331.874C416.176 527 484.515 458.66 484.515 374.359V153.641C484.515 69.3398 416.176 1 331.874 1Z" fill="black" stroke="white" stroke-miterlimit="10"/>
<path d="M303.106 187.749C306.408 188.233 309.607 189.259 312.574 190.784C308.528 217.529 293.537 234.927 274.642 246.216C271.326 248.189 267.909 249.985 264.405 251.598C262.887 252.306 261.35 252.973 259.812 253.621C255.685 255.32 251.504 256.804 247.269 258.071C227.681 263.707 207.384 266.501 187.002 266.366H139.662V350.931C139.662 381.681 159.083 379.658 176.886 379.658V381.681H68.4495V379.658C86.2526 379.658 106.079 380.468 106.079 351.335L105.674 130.415C105.674 98.4507 85.848 100.474 68.0449 100.474V98.4507H220.585C289.976 98.4507 310.207 141.198 313.222 168.672C306.807 167.702 300.328 167.222 293.841 167.235C288.351 167.253 282.876 167.809 277.494 168.894C273.225 137.233 251.761 104.156 210.47 104.156H139.662V260.742H172.436C196.935 260.742 218.42 258.719 235.515 251.962C238.54 250.805 241.486 249.454 244.336 247.916C246.538 246.694 248.666 245.343 250.709 243.869C252.95 242.294 255.073 240.556 257.061 238.67C268.532 227.887 275.795 212.168 277.838 189.55C283.069 187.874 288.53 187.027 294.023 187.041C297.065 187.032 300.102 187.269 303.106 187.749Z" fill="white"/>
<path d="M293.031 258.659C287.124 257.344 281.196 256.151 275.673 254.815C274.459 255.483 273.225 256.151 271.971 256.839C278.95 258.558 285.991 260.177 292.626 261.977C276.037 267.237 259.448 273.306 244.477 281.803C216.559 296.369 193.496 328.739 214.94 358.68C225.865 373.651 246.905 380.934 267.54 381.743C308.811 382.553 338.348 357.062 338.753 316.196C338.753 290.624 323.782 265.538 293.031 258.659ZM272.8 375.998C251.356 374.784 236.79 359.409 234.362 339.178C230.316 300.739 263.899 276.462 297.077 264.324C322.973 272.012 336.325 293.456 335.92 316.519C334.706 350.102 308.002 378.021 272.8 375.998Z" fill="white"/>
<path d="M293.031 258.659C287.124 257.344 281.196 256.151 275.673 254.815C274.459 255.483 273.225 256.151 271.971 256.839C278.95 258.558 285.991 260.177 292.626 261.977C276.037 267.237 259.448 273.306 244.477 281.803C216.559 296.369 193.496 328.739 214.94 358.68C225.865 373.651 246.905 380.934 267.54 381.743C308.811 382.553 338.348 357.062 338.753 316.196C338.753 290.624 323.782 265.538 293.031 258.659ZM272.8 375.998C251.356 374.784 236.79 359.409 234.362 339.178C230.316 300.739 263.899 276.462 297.077 264.324C322.973 272.012 336.325 293.456 335.92 316.519C334.706 350.102 308.002 378.021 272.8 375.998Z" fill="white"/>
<path d="M427.768 352.934C427.768 352.934 422.488 380.044 396.208 381.257C370.717 382.067 342.799 374.379 342.799 336.345V259.873C342.799 236.446 341.464 201.75 321.233 186.658C318.841 184.858 316.222 183.382 313.444 182.268C310.529 181.066 307.479 180.224 304.361 179.759C295.684 178.302 286.797 178.695 278.283 180.912C275.514 181.63 272.808 182.57 270.191 183.724C256.94 189.49 246.501 200.334 243.324 215.77C241.668 222.996 242.561 230.572 245.853 237.214C242.957 239.225 239.89 240.978 236.689 242.454C229.325 235.778 226.735 227.079 229.163 216.579C233.715 197.845 251.417 185.08 270.231 179.132C272.89 178.312 275.592 177.636 278.324 177.109C283.461 175.987 288.703 175.411 293.962 175.389C300.589 175.371 307.207 175.898 313.748 176.967C316.499 177.432 319.19 177.979 321.84 178.646C354.553 186.739 377.252 210.49 376.928 249.838V336.021C376.928 351.801 378.547 374.865 397.968 376.483C418.988 377.697 423.864 353.015 423.864 353.015L427.768 352.934Z" fill="white"/>
</svg>
